<svg width="175" height="49" viewBox="0 0 175 49" fill="none" xmlns="http://www.w3.org/2000/svg">
<path d="M53.1831 4.96326V39.002L57.5633 39.0354V22.8185H68.1294V18.5386H57.5633V9.24318H71.3059V4.96326H53.1831V4.96326ZM79.197 11.8847C80.7685 11.8847 82.0726 10.6141 82.0726 9.00912C82.0726 7.40415 80.802 6.13355 79.197 6.13355C77.6254 6.13355 76.3214 7.40415 76.3214 9.00912C76.3214 10.6141 77.592 11.8847 79.197 11.8847ZM76.9567 16.1646V39.0354H81.3369V16.1646H76.9567ZM97.5873 15.4959C91.7692 15.4959 87.7234 20.4111 87.7234 26.2625C87.7234 32.114 91.7692 37.0292 97.5873 37.0292C100.262 37.0292 102.436 36.0261 104.041 34.3208V37.3636C104.074 41.1419 101.065 44.285 97.2529 44.3184C97.2194 44.3184 97.2195 44.3184 97.186 44.3184C95.7817 44.3184 94.4108 43.7835 93.3073 43.0144L91.1005 46.8262C96.3167 50.2033 103.272 48.6987 106.615 43.4825C107.785 41.6435 108.421 39.537 108.421 37.3636V16.198H104.041V18.2377C102.436 16.5324 100.262 15.4959 97.5873 15.4959ZM92.1036 26.2625C92.1036 22.6179 94.8789 19.7758 98.0888 19.7758C101.299 19.7758 104.041 22.6514 104.041 26.2625C104.041 29.9072 101.265 32.7158 98.0888 32.7158C94.8789 32.7158 92.1036 29.8737 92.1036 26.2625ZM124.203 19.7758C121.595 19.8092 119.488 21.9492 119.522 24.5573V39.002H115.142V16.1312H119.522V18.2377C120.859 16.4655 122.932 15.4624 125.173 15.4959C128.249 15.4959 130.623 17.0005 131.96 19.3411C133.498 16.9671 136.107 15.5293 138.915 15.4959C143.897 15.4959 147.007 19.5083 147.007 24.4904V39.002H142.66V24.5573C142.66 21.9492 140.587 19.8092 137.979 19.7758C135.371 19.8092 133.264 21.9492 133.298 24.5573V39.002H128.884V24.5573C128.884 21.9492 126.811 19.8092 124.203 19.7758ZM170.346 18.7392C168.34 16.6327 165.531 15.4624 162.622 15.4959C156.102 15.4959 151.487 21.0129 151.487 27.5666C151.487 34.1536 156.102 39.6373 162.622 39.6373C165.531 39.6373 168.306 38.467 170.346 36.3939V39.002H174.726V16.1312H170.346V18.7392ZM155.868 27.5666C155.868 23.2198 159.211 19.7424 163.124 19.7424C167.002 19.7758 170.346 23.2198 170.346 27.5666C170.346 31.9134 167.002 35.3574 163.09 35.3574C159.245 35.3908 155.868 31.9468 155.868 27.5666Z" fill="black"/>
<path d="M15.2832 23.2762C15.2832 19.1099 18.6656 15.7275 22.8319 15.7275C26.9982 15.7275 30.3806 19.1099 30.3806 23.2762C30.3806 27.4426 26.9982 30.8249 22.8319 30.8249C18.6656 30.8249 15.2832 27.4426 15.2832 23.2762Z" fill="#1ABCFE"/>
<path d="M0.208008 38.3512C0.208008 34.1848 3.59036 30.8025 7.7567 30.8025H15.3054V38.3512C15.3054 42.5175 11.923 45.8999 7.7567 45.8999C3.59036 45.8999 0.208008 42.5175 0.208008 38.3512Z" fill="#0ACF83"/>
<path d="M15.2832 0.652528V15.7275H22.8319C26.9982 15.7275 30.3806 12.3452 30.3806 8.17883C30.3806 4.01248 26.9982 0.630127 22.8319 0.630127H15.2832V0.652528Z" fill="#FF7262"/>
<path d="M0.208008 8.20158C0.208008 12.3679 3.59036 15.7503 7.7567 15.7503H15.3054V0.675282H7.7567C3.59036 0.652882 0.208008 4.03523 0.208008 8.20158Z" fill="#F24E1E"/>
<path d="M0.208008 23.2762C0.208008 27.4425 3.59036 30.8249 7.7567 30.8249H15.3054V15.7499H7.7567C3.59036 15.7275 0.208008 19.1098 0.208008 23.2762Z" fill="#A259FF"/>
</svg>
