<svg width="180" height="49" viewBox="0 0 180 49" fill="none" xmlns="http://www.w3.org/2000/svg">
<path d="M26.9297 28.9503C29.5935 28.9503 31.7529 26.7905 31.7529 24.1263C31.7529 21.4621 29.5935 19.3023 26.9297 19.3023C24.2659 19.3023 22.1064 21.4621 22.1064 24.1263C22.1064 26.7905 24.2659 28.9503 26.9297 28.9503Z" fill="#0063AA"/>
<path d="M26.9297 35.1812C21.1464 35.3268 15.3777 34.5349 9.84743 32.8362C7.29715 32.0167 4.91471 30.7459 2.81354 29.0842C0.93784 27.4762 0 25.8012 0 24.1262C0 20.9102 3.48345 17.8283 9.37852 15.7513C15.0722 13.9368 21.0216 13.0544 26.9967 13.1383C33.4277 13.1383 39.5907 14.0093 44.347 15.6843C47.1605 16.6223 49.5052 17.8953 51.1799 19.3023C52.9886 20.8433 53.9265 22.4512 53.9265 24.1262C53.9265 27.4092 50.0411 30.8262 43.7441 32.9032C38.2862 34.5062 32.6173 35.2742 26.9297 35.1812V35.1812ZM26.9297 15.4833C20.6997 15.4833 14.6037 16.3543 10.0484 17.9623C6.16303 19.3023 2.21064 21.7812 2.21064 24.1262C2.21064 25.0642 2.94753 26.2032 4.22033 27.3422C5.76108 28.6152 7.90474 29.8212 10.5173 30.6922C15.8107 32.3071 21.3307 33.0537 26.8628 32.9032C32.9588 32.9032 38.6529 32.1662 42.9402 30.6922C48.9023 28.7492 51.5819 25.9352 51.5819 24.1262C51.5819 23.2552 50.912 22.1162 49.6392 21.1112C47.8097 19.6927 45.7467 18.6044 43.5431 17.8953C38.1664 16.2234 32.5598 15.4094 26.9297 15.4833V15.4833Z" fill="#0063AA"/>
<path d="M16.0108 48.1792C15.006 48.1792 14.1351 47.9782 13.4652 47.5762C10.7187 45.9682 9.7808 41.4122 10.9196 35.3152C12.1915 29.4779 14.409 23.8878 17.4846 18.7663C20.3763 13.6201 24.0613 8.96226 28.4039 4.96433C30.6145 3.02134 32.8922 1.61435 34.9019 0.877351C37.1125 0.0733538 39.0552 0.0733538 40.462 0.877351C43.3425 2.55234 44.2804 7.57731 42.9406 14.0763C41.6333 19.597 39.487 24.8845 36.5766 29.7542C33.8038 34.8301 30.2552 39.4417 26.0592 43.4222C23.7816 45.4322 21.437 46.9062 19.2933 47.6432C17.9535 47.9782 16.9487 48.1792 16.0108 48.1792ZM19.3603 19.8383C16.4327 24.7398 14.3069 30.0778 13.0633 35.6502C12.3264 39.6702 12.4604 44.2932 14.537 45.4992C16.0778 46.3702 19.8292 45.5662 24.3845 41.5462C27.734 38.5982 31.2174 34.1092 34.4329 28.4812C37.2434 23.8236 39.3219 18.762 40.596 13.4733C41.1754 11.084 41.3116 8.60875 40.9979 6.17033C40.7299 4.42833 40.127 3.22233 39.2562 2.75334C38.4523 2.28434 37.1795 2.35135 35.6387 2.88734C33.5043 3.78228 31.5345 5.02777 29.8106 6.57233C25.6791 10.4427 22.1559 14.9152 19.3603 19.8383Z" fill="#0063AA"/>
<path d="M37.8485 48.1792C35.2359 48.1792 31.8865 46.5712 28.47 43.6232C24.0514 39.6109 20.3178 34.9036 17.4167 29.6872C14.2012 24.1263 11.8566 18.2973 10.9188 13.3393C10.3159 10.4583 10.2489 7.77832 10.6508 5.63433C11.0527 3.28933 11.9906 1.61434 13.3974 0.810347C16.2779 -0.864647 21.1012 0.877351 26.0584 5.23233C30.1403 9.15614 33.6372 13.6464 36.4417 18.5653C39.4869 23.4859 41.7047 28.8727 43.0067 34.5112C43.6096 37.4592 43.6766 40.2732 43.2747 42.4842C42.8057 44.8962 41.8009 46.5712 40.3941 47.4422C39.6467 47.9548 38.7542 48.2132 37.8485 48.1792ZM19.4264 28.5482C22.5079 33.9082 26.3933 38.7992 30.0107 41.8812C33.1593 44.5612 37.1786 46.7722 39.2553 45.5662C40.7961 44.6952 41.9349 41.0102 40.7291 35.1142C39.4577 29.7191 37.3318 24.562 34.4321 19.8383C31.802 15.09 28.4582 10.774 24.5176 7.04132C22.7171 5.36444 20.6295 4.02542 18.3546 3.08833C16.7468 2.48534 15.3401 2.41834 14.5362 2.88734C13.7323 3.35634 13.1964 4.49533 12.8614 6.10332C12.5598 8.3799 12.6504 10.6913 13.1294 12.9373C14.0673 17.6273 16.2779 23.1883 19.4264 28.5482V28.5482Z" fill="#0063AA"/>
<path d="M80.8574 41.1442L72.0818 27.4093H65.1819V41.1442H60.8945V6.63937H74.7613C81.0584 6.63937 85.5467 10.6594 85.5467 17.0243C85.5467 23.2553 81.3263 26.6723 76.5701 27.0743L85.8816 41.1442H80.8574V41.1442ZM81.1253 17.0243C81.1253 13.1384 78.3118 10.4584 74.2254 10.4584H65.1819V23.6573H74.2254C78.3118 23.6573 81.1253 20.9103 81.1253 17.0243Z" fill="#0063AA"/>
<path d="M89.6995 28.6152C89.6995 21.3793 94.8576 15.5503 102.026 15.5503C109.595 15.5503 114.017 21.4463 114.017 28.9502V29.9552H93.7858C94.1208 34.6452 97.4032 38.5982 102.762 38.5982C105.576 38.5982 108.523 37.4592 110.466 35.4492L112.342 37.9952C111.032 39.2678 109.479 40.2622 107.775 40.9186C106.071 41.5749 104.252 41.8796 102.427 41.8142C95.0586 41.7472 89.6995 36.4542 89.6995 28.6152V28.6152ZM101.959 18.7663C96.5994 18.7663 93.9868 23.2553 93.7858 27.0743H110.198C110.131 23.3223 107.653 18.7663 101.959 18.7663Z" fill="#0063AA"/>
<path d="M134.381 41.1442V38.3302C133.33 39.4754 132.043 40.3797 130.609 40.981C129.175 41.5824 127.629 41.8666 126.075 41.8142C121.854 41.8142 117.299 39.0002 117.299 33.5062C117.299 27.9452 121.787 25.2653 126.075 25.2653C129.491 25.2653 132.305 26.3373 134.381 28.6822V24.1933C134.381 20.8433 131.702 18.9003 128.084 18.9003C125.07 18.9003 122.658 19.9723 120.448 22.3843L118.639 19.7043C121.318 16.8903 124.534 15.5503 128.62 15.5503C133.912 15.5503 138.267 17.9623 138.267 23.9923V41.1442H134.381V41.1442ZM134.381 35.8512V31.1612C132.908 29.0842 130.228 28.0793 127.481 28.0793C123.864 28.0793 121.318 30.3572 121.318 33.5732C121.318 36.7222 123.864 39.0002 127.481 39.0002C130.228 39.0002 132.841 37.9282 134.381 35.8512Z" fill="#0063AA"/>
<path d="M141.95 28.6152C141.95 21.2453 146.974 15.5503 154.41 15.5503C158.966 15.5503 161.645 17.4263 163.588 19.9053L160.975 22.3173C160.281 21.274 159.332 20.4251 158.219 19.8506C157.105 19.2762 155.864 18.9952 154.611 19.0343C149.252 19.0343 145.97 23.1212 145.97 28.6822C145.97 34.2432 149.252 38.3302 154.611 38.3302C157.224 38.3302 159.3 37.3252 160.975 35.0472L163.588 37.4592C162.533 38.8832 161.144 40.0254 159.544 40.785C157.943 41.5445 156.18 41.898 154.41 41.8142C146.974 41.7472 141.95 36.0522 141.95 28.6152V28.6152ZM169.818 35.9182V19.5703H165.664V16.1533H169.818V9.31931H173.703V16.1533H178.794V19.5703H173.703V35.1142C173.703 36.9902 174.507 38.3302 176.249 38.3302C177.321 38.3302 178.392 37.8612 178.861 37.3252L180 40.2062C179.364 40.7712 178.622 41.2042 177.817 41.4802C177.012 41.7562 176.16 41.8698 175.311 41.8142C171.627 41.7472 169.818 39.6702 169.818 35.9182Z" fill="#0063AA"/>
</svg>
